<svg id="Livello_1" data-name="Livello 1" xmlns="http://www.w3.org/2000/svg" viewBox="0 0 5442.51978 526.70131"><defs><style>.cls-1{fill:none;}.cls-2{fill:#a4b9d6;}.cls-3{fill:#1f1f1f;}</style></defs><path class="cls-1" d="M1160.17465,14.23072c790.5882,79.05883,1191.52942,282.353,1823.99994,282.353,632.47064,0,1462.58832-276.73279,1823.99994-293.66052,202.67334-9.4928,453.28833,5.87231,634.34522,21.20093V0H0V206.50788C217.10861,105.2403,631.90012-38.59674,1160.17465,14.23072Z" transform="translate(0.00003 0.00001)"/><path class="cls-2" d="M4808.17453,2.92316c-361.41162,16.92773-1191.5293,293.66052-1823.99994,293.66052-632.47052,0-1033.41174-203.29413-1823.99994-282.353C631.90012-38.59674,217.10861,105.2403,0,206.50788v23.35723C217.38107,128.62305,631.71066-14.69214,1159.17465,38.05426c790.5882,79.05878,1191.52942,282.35291,1823.99994,282.35291,632.47064,0,1462.58832-276.73273,1823.99994-293.66046,203.04541-9.5102,454.21216,5.92883,635.34522,21.28534v-23.908C5261.46286,8.79547,5010.84787-6.56964,4808.17453,2.92316Z" transform="translate(0.00003 0.00001)"/><path class="cls-3" d="M4807.17453,26.74671c-361.41162,16.92773-1191.5293,293.66046-1823.99994,293.66046-632.47052,0-1033.41174-203.29413-1823.99994-282.35291C631.71066-14.69214,217.38107,128.62305,0,229.86511V526.7013H5442.51975V48.03205C5261.38669,32.67554,5010.21994,17.23651,4807.17453,26.74671Z" transform="translate(0.00003 0.00001)"/></svg>
