<svg xmlns="http://www.w3.org/2000/svg" viewBox="0 0 481.32318 516.90998"><defs><style>.cls-1,.cls-12{fill:#5a5a5a;}.cls-1,.cls-10,.cls-11,.cls-12,.cls-13,.cls-14,.cls-15,.cls-16,.cls-17,.cls-18,.cls-2,.cls-3,.cls-4,.cls-5,.cls-6,.cls-7,.cls-8,.cls-9{stroke:#000;}.cls-1,.cls-10,.cls-11,.cls-14,.cls-15,.cls-17,.cls-18,.cls-19,.cls-2,.cls-20,.cls-21,.cls-4,.cls-5,.cls-8{stroke-linecap:round;stroke-linejoin:round;}.cls-2{fill:#556f94;}.cls-3{fill:#a4b9d6;}.cls-12,.cls-13,.cls-16,.cls-3,.cls-6,.cls-7,.cls-9{stroke-miterlimit:10;}.cls-22,.cls-4{fill:#fff;}.cls-17,.cls-5{fill:#262626;}.cls-6{fill:#2f343e;}.cls-7{fill:#6d82a5;}.cls-14,.cls-16,.cls-8{fill:#1f1f1f;}.cls-9{fill:#a3a3a3;}.cls-10{fill:#ababab;}.cls-11{fill:#5e5e5e;}.cls-12{isolation:isolate;}.cls-13{fill:#8eaad4;}.cls-14{fill-opacity:0.00859;}.cls-15,.cls-19,.cls-20{fill:none;}.cls-17{fill-opacity:0;}.cls-18{fill:red;}.cls-19{stroke:#6d82a5;}.cls-20{stroke:#8eaad4;}.cls-21{stroke:#fff;}</style></defs><g id="Livello_2" data-name="Livello 2"><g id="Layer_1" data-name="Layer 1"><path class="cls-1" d="M307.5932,9.23l-1.44,100.35-23.96,7.12a40.96984,40.96984,0,0,0,2.44-3.46c1.24-1.73,1.5-6.98-2.26-7.36-3.02-.31-4.35,1.88-4.92.17994-.56-1.71,1.33-3.75,2.48-4.61a9.418,9.418,0,0,0,2.59-2.16,7.74312,7.74312,0,0,0,.77-1.67993l1.78-.41993L294.55316,95V79.89l-15,2.89991V87.88a22.29444,22.29444,0,0,0-7.24-3.07006V.5Z"/><polygon class="cls-2" points="300.443 83.6 300.443 100.68 285.073 104.05 285.073 97.19 294.553 95 294.553 84.56 300.443 83.6"/><path class="cls-3" d="M294.55316,79.89V95l-9.48,2.19006-1.78.41993a7.64458,7.64458,0,0,0-2.93-9.18995q-.39-.27007-.81-.54V82.78992Z"/><path class="cls-4" d="M385.34766,505.1828c-3.47,3.23-6.41,6.21-7.91,7.77-.21-.26-.32-.43-.32-.43-.72-.64-5.11-4.54-5.43-9.52-.13995-2.26.59-4.1,2.19-6.47a7.16318,7.16318,0,0,1,3.87.73C379.88763,498.45282,383.47766,502.79285,385.34766,505.1828Z"/><path class="cls-5" d="M418.15765,486.42285s-35.29,28.7-37.17,28.7a4.93569,4.93569,0,0,1-3.42-2.01,1.53587,1.53587,0,0,1-.13-.16c1.5-1.56,4.44-4.54,7.91-7.77a101.37175,101.37175,0,0,1,12.52-10.23c6.74-4.39,14.15-9.59,17.89-12.35l.03.03A40.57457,40.57457,0,0,1,418.15765,486.42285Z"/><path class="cls-2" d="M415.75317,482.6c-3.74,2.76-11.15,7.96-17.89,12.35a101.36771,101.36771,0,0,0-12.52,10.23c-1.87-2.39-5.46-6.73-7.6-7.92a7.16266,7.16266,0,0,0-3.87-.73c.78-1.17,1.78-2.46,2.99-4a143.59279,143.59279,0,0,1,12.01-11.76c.13.15.24.28.35.41,1.59,1.89,18.74-4.48,16.29-7.64-.13-.17-.26-.34-.4-.52a7.13438,7.13438,0,0,1,1.4.34c3.34,1.17,5.94,4.73,8.94,8.82C415.55316,482.32,415.66321,482.46,415.75317,482.6Z"/><path class="cls-4" d="M275.23292,508.608c-5.11629.79687-9.60007,1.69208-11.912,2.18465-.03071-.36373-.02616-.58486-.02616-.58486-.25933-1.01971-1.84213-7.2351.91764-11.9354,1.25715-2.12978,3.044-3.34709,5.94229-4.51107a7.82393,7.82393,0,0,1,3.05339,3.0298C274.4151,499.17771,275.00488,505.30131,275.23292,508.608Z"/><path class="cls-5" d="M316.39544,511.729s-49.4918,4.351-51.19217,3.19994c-1.36578-.92456-1.75526-2.82372-1.86271-3.912a1.67745,1.67745,0,0,1-.0196-.22434c2.31189-.49257,6.79567-1.38778,11.912-2.18465a110.72292,110.72292,0,0,1,17.58776-1.587c8.7842.15615,18.67025-.01009,23.74292-.21653l.00881.04549A44.31715,44.31715,0,0,1,316.39544,511.729Z"/><path class="cls-2" d="M316.56317,506.8c-5.07.21-14.96.38-23.74.22a110.575,110.575,0,0,0-17.59,1.59c-.23-3.31-.81994-9.43-2.03-11.82a7.79288,7.79288,0,0,0-3.05-3.03c1.42-.58,3.12-1.13,5.16-1.79a153.55871,153.55871,0,0,1,19.32-3.4c2.3,2.91,16.29,8.72,16.69,5.1.1-.88.22-1.88.33-2.91a7.76756,7.76756,0,0,1,2.21,2.03c2.31,3.1,2.48,7.91,2.69,13.45C316.55316,506.43,316.56317,506.62,316.56317,506.8Z"/><path class="cls-4" d="M312.23315,485.6c-.16,1.43-.38,3.33-.57995,5.16-.11005,1.03-.23,2.03-.33,2.91-.4,3.62-14.39-2.19-16.69-5.1a1.18115,1.18115,0,0,1-.33-.75c.1-1.43006.22-3.97.31-5.85A59.05262,59.05262,0,0,0,312.23315,485.6Z"/><path class="cls-6" d="M390.74316,293.91c-.76995,3.34-1.84,8.13-3.07995,13.76l-46.75.69.63995-9.9-1.5,9.91-37.66.56,6.04-21.71h38.89l1.08-10.53992c1.04-.02,2.11-.04,3.22-.07006,18.25-.45,34.45-7.66,40.02-10.41993a2.3838,2.3838,0,0,1,.15.36988C392.55316,269.37,394.31317,278.43,390.74316,293.91Z"/><polygon class="cls-1" points="340.053 308.37 341.553 298.46 340.913 308.36 340.053 308.37"/><path class="cls-6" d="M336.7132,330.51l-.05.31-5.21.54-.21,35.4v.01l-2.73,18.06a22.95656,22.95656,0,0,0,2.53,14.41v.01l-.1,17.48-8.04,67.19a1.60326,1.60326,0,0,1-1.39,1.4,53.04033,53.04033,0,0,1-9.28.28,59.05262,59.05262,0,0,1-17.62-3.63,54.8696,54.8696,0,0,1-7.82-3.62c-.62994-.35.3-52.86.66-72.32a101.92129,101.92129,0,0,1,1.27-14.17l9.79-60.93Z"/><polygon class="cls-1" points="339.483 330.48 339.453 330.95 336.793 331.02 336.473 376.99 336.473 377.01 336.253 408.46 336.123 408.23 336.183 381.51 336.183 381.48 336.283 333.33 336.283 333.3 336.293 331.03 336.633 331.02 336.663 330.82 336.713 330.51 339.483 330.48"/><path class="cls-6" d="M331.24316,366.77l-.2,32.47a22.95656,22.95656,0,0,1-2.53-14.41Z"/><polygon class="cls-1" points="339.483 330.48 339.453 330.95 336.793 331.02 336.473 376.99 336.473 377.01 336.183 381.48 336.283 333.33 336.283 333.3 336.633 331.02 336.663 330.82 336.713 330.51 339.483 330.48"/><polygon class="cls-1" points="341.553 298.46 340.913 308.36 340.053 308.37 341.553 298.46"/><polygon class="cls-1" points="349.913 117.59 349.693 119.11 349.763 118.59 349.913 117.59"/><path class="cls-1" d="M349.62317,123.9V123.96c-.03-.03992-.04-.05994-.03-.06995Z"/><path class="cls-1" d="M349.69318,120.12a.58481.58481,0,0,0-.13-.02c.01-.09.02-.17994.03-.26Z"/><path class="cls-1" d="M349.62317,123.9V123.96c-.03-.03992-.04-.05994-.03-.06995Z"/><path class="cls-4" d="M422.3432,199.83c-.09,1.72-.94,6.88-3.18,9.29-2.24,2.41992-19.92005,14.06-38.59,27.22l-14.12,9.96s-1.41,9.29-9.88,10.82007c-3.31.67993-5.17-.17994-6.09-.89v-.01l2.3-22.52991a4.58754,4.58754,0,0,1,2.5-1.51,6.35974,6.35974,0,0,1,6.11,2.58985l16.67-19.1399,17.18-19.72.04.03992,1.29-1.55994-1.33,1.52-2.89-3.08007a5.46783,5.46783,0,0,1,.38-.46c.12-.15.25-.3.38-.45a5.31626,5.31626,0,0,1,.39-.44006,36.13455,36.13455,0,0,1,9.45-7.45007,1.503,1.503,0,0,0,.17-.09986.29939.29939,0,0,0,.08-.04c5.56-3.04,10.66-5.69006,13.72-4.12011a2.82312,2.82312,0,0,1,1,1.03C420.5332,184.85,422.41321,198.29993,422.3432,199.83Z"/><polygon class="cls-1" points="395.244 195.913 396.574 194.393 395.284 195.953 395.244 195.913"/><path class="cls-3" d="M350.43317,114.14l-.3,2.08-.03.15-.06.37-.06.39-.06994.46c-.05.32006-.1.65-.15,1l-.07.52-.1.73c-.01.08007-.02.17-.03.26a2.32207,2.32207,0,0,0-.28-.05,32.71091,32.71091,0,0,0-17.46,2.05c2-5.89,3.85-11.72,4.82-14.78C339.43317,110.18005,343.74316,112.95,350.43317,114.14Z"/><path class="cls-1" d="M349.69318,120.12a.58481.58481,0,0,0-.13-.02c.01-.09.02-.17994.03-.26Z"/><polygon class="cls-1" points="349.913 117.59 349.693 119.11 349.763 118.59 349.913 117.59"/><path class="cls-3" d="M336.64319,107.32c-.97,3.06-2.82,8.89-4.82,14.78-.13.39-.27.78-.4,1.16992-2.37,6.93-4.87,13.70007-6.27,15.92016-3.2,5.07-8.57-.66015-8.57-.66015s1.43-4.07,3.44-9.87989c3.43-9.9,8.57-24.83007,11.21-33.18005a15.696,15.696,0,0,0,1.5,6.26,21.62076,21.62076,0,0,0,1.26,2.25A20.76,20.76,0,0,0,336.64319,107.32Z"/><path class="cls-4" d="M294.52319,176.79993l-.37,3.94006s-.46.5-1.26,1.29993c-1.04,1.05-2.64,2.60009-4.51,4.21008-4.6,3.96-10.86,8.29993-14.5,6.43a31.275,31.275,0,0,1-6.63-5.28c-.38-.38012-.76-.76-1.12-1.15a28.50155,28.50155,0,0,1-3.2-4.21008,26.43631,26.43631,0,0,1-3.7-18.87989l8.02-43.16a15.47328,15.47328,0,0,0,4.54,1.36,10.3454,10.3454,0,0,0,8.5-2.67994l7.94,28.87989c-.02,0-.03.01-.05.02-.44.2.09,1.28.99,3.43l.04.13.03.02C291.02319,155.36,294.1532,163.48,294.52319,176.79993Z"/><path class="cls-1" d="M289.17316,151.01c-.9-2.15-1.43-3.2301-.99-3.43.02-.01.03-.02.05-.02Z"/><path class="cls-1" d="M342.59945,87.84807a3.22,3.22,0,1,1-3.22-3.22A3.21792,3.21792,0,0,1,342.59945,87.84807Z"/><path class="cls-3" d="M377.75317,112.07c-.67,3.41-1.33,6.56-1.98,9.48-.42-.04993-.85-.09-1.28-.12989-.41-.04-.82-.08007-1.24-.1101h-.03c-.43006-.03-.85-.04993-1.27-.05994-.62-.02-1.23-.03-1.83-.02l.29-1.24,1.43-6.17.16-.69c1.47-.31,3-.67,4.58-1.08007a2.33829,2.33829,0,0,0,1-.49Z"/><path class="cls-2" d="M393.69318,265.13s-.72.40992-2.05,1.06006c-5.57,2.75989-21.77,9.97-40.02,10.41993-1.11.03-2.18.05-3.22.07006l.98-9.63012,1.1-10.82c.92005.71008,2.78,1.57,6.09.89,8.47-1.53,9.88-10.82007,9.88-10.82007l14.12-9.96.06.48Z"/><path class="cls-2" d="M420.04315,181a17.7922,17.7922,0,0,0-2.12-.20007,2.82312,2.82312,0,0,0-1-1.03c-3.06-1.57-8.16,1.08008-13.72,4.12011a.29939.29939,0,0,1-.08.04,30.55069,30.55069,0,0,0-9.62,7.54993,5.31626,5.31626,0,0,0-.39.44006c-.13.14991-.26.29993-.38.45a5.46783,5.46783,0,0,0-.38.46c-.21.27-.42.54-.62994.82006-.61005.81995-12.46-13.37011-12.46-13.37011l-1.2,35.35009-16.67,19.1399a6.35974,6.35974,0,0,0-6.11-2.58985,4.58754,4.58754,0,0,0-2.5,1.51l4.78-46.88012.49-4.77h-45.31c.18-4.46.29-7.11988.29-7.11988l-.09-.13012v-.01l-.92-1.33s-.1.05-.29.15c-.52.27-1.72.88-3.25994,1.65-5.11005,2.57-13.94,6.89-13.93006,6.01.03-1.55.02-3.04-.02-4.46008-.37-13.31995-3.5-21.43994-5.28-25.6399a.99639.99639,0,0,0-.07-.15l-.94-3.45007c18.23-8.37989,23.63-12.72,29.85-17.47.65-.5,1.3-.98,1.94-1.43995-2.01,5.80994-3.44,9.87989-3.44,9.87989s5.37,5.7301,8.57.66015c1.4-2.22009,3.9-8.99011,6.27-15.92016.13-.3899.27-.77991.4-1.16992a32.71091,32.71091,0,0,1,17.46-2.05,2.32207,2.32207,0,0,1,.28.05.58481.58481,0,0,1,.13.02l.12.37c-.04.59-.08,1.17-.11,1.73-.03.4-.04.79993-.06,1.19006-.01.16993-.01.33-.02.49l-.03-.01c-.01.01,0,.03.03.06995,0,.13-.01.26-.01.39-.01.29-.01.59008-.02.87q-.015,1.26.03,2.43c.03.8899.09,1.74.16,2.54993.04.41.08.8.13,1.19006.03.24.06.48.1.71.02.16992.05.34008.08.51.09.57006.19,1.12.32,1.63.04.17.07995.34.12.5.04.17.08.33.13.48.05.20007.12.4.18.59.07.25.16.49.24.71.01.02.01.03.02.03a1.80492,1.80492,0,0,0,.08.21008c.05.13.1.25989.16.38.06.12989.11.26.17.37989l.18.33008a1.07739,1.07739,0,0,0,.06.11c.12.21008.24.41.37.6.11.16.23.32006.35.47a3.8861,3.8861,0,0,0,1.9,1.33008c2.46.72,5.3-1.71,7.35-3.47.3-.26.59-.51.86-.78.23-.22.46-.44.68-.66993l.05-.05a21.85311,21.85311,0,0,0,1.51-1.74q.255-.31494.48-.63012a25.41187,25.41187,0,0,0,3.22-5.92993c.19-.5.36-.98.51-1.45a30.278,30.278,0,0,0,1.01-4.08007l.08-.33c.6-.01,1.21,0,1.83.02.42.01.84.02991,1.27.05994h.03c.42.03.83.07006,1.24.1101.43.03992.86.08,1.28.12989-1.73,7.75-3.37,13.85009-4.81,18.58007a142.85656,142.85656,0,0,1-5.33,14.6399c.15.44006,14.15,7.2301,18.12,4.59009a6.34024,6.34024,0,0,0,2.24-2.94c.14-.33007.28-.66.41-.99a105.19344,105.19344,0,0,0,6.93-27.9801,13.77173,13.77173,0,0,1,1.05,1.51c.07.11.15.2301.22.35.08.13012.15.25.23.38012.09.12989.17.2699.25.40992s.17.28.25.42993c.75,1.27,1.64,2.85009,2.62,4.65014.11.21.23.42994.35.64991.74,1.3601,1.52,2.83007,2.33,4.37.21.4.42.79.63,1.20007.02.03.04.06995.06.1.69,1.32,1.4,2.68,2.11,4.07.28.54.56,1.09008.84,1.63,1.64,3.20007,3.31,6.5,4.88,9.64.13.26.26.51.38995.77.7,1.40991,1.39,2.78,2.04,4.1l.45.93c1.05,2.11,1.99,4.04,2.79,5.7,1.2,2.49,2.08,4.36,2.46,5.26a64.919,64.919,0,0,1,2.59,6.81005c0,.01.01.01.01.02C420.00317,180.82,420.04315,181,420.04315,181Z"/><path class="cls-1" d="M288.23315,147.55994l.94,3.45007c-.9-2.15-1.43-3.2301-.99-3.43C288.20319,147.57,288.2132,147.55994,288.23315,147.55994Z"/><path class="cls-1" d="M349.62317,123.9V123.96c-.03-.03992-.04-.05994-.03-.06995Z"/><path class="cls-3" d="M393.99316,118.53992s-.04,3.52-.66,8.91a105.19344,105.19344,0,0,1-6.93,27.9801c-.13.33-.27.65992-.41.99a6.34024,6.34024,0,0,1-2.24,2.94c-3.97,2.64-17.97-4.15-18.12-4.59009a142.85656,142.85656,0,0,0,5.33-14.6399c1.44-4.73,3.08-10.83007,4.81-18.58007.65-2.91993,1.31-6.07,1.98-9.48l-.17-.51c1.57-1.36-.45-4.52,1.98-6.87989,2.7-2.6101,6.06-5.38012,6.06-5.38012a12.04471,12.04471,0,0,0,7.94,1.56006C394.25317,106.24,393.99316,118.53992,393.99316,118.53992Z"/><path class="cls-4" d="M284.63318,113.24a40.96984,40.96984,0,0,1-2.44,3.46,15.951,15.951,0,0,1-1.9,1.9801,10.3454,10.3454,0,0,1-8.5,2.67994,15.47328,15.47328,0,0,1-4.54-1.36,19.73961,19.73961,0,0,1-9.77-11.01c-1.62-4.74-3.25994-15.9,3.05-21.39a13.0612,13.0612,0,0,1,11.78-2.79,22.29444,22.29444,0,0,1,7.24,3.07006q.42.26991.81.54a7.64458,7.64458,0,0,1,2.93,9.18995,7.74312,7.74312,0,0,1-.77,1.67993,9.418,9.418,0,0,1-2.59,2.16c-1.15.86-3.04,2.9-2.48,4.61.57,1.70007,1.9-.49,4.92-.17994C286.13318,106.26,285.87317,111.51,284.63318,113.24Z"/><path class="cls-4" d="M400.68317,95.03992c-2.09,3.77-4.68,5.34008-7.12,5.82007a12.04471,12.04471,0,0,1-7.94-1.56006s-3.36,2.77-6.06,5.38012c-2.43,2.35987-.41,5.5199-1.98,6.87989a2.33829,2.33829,0,0,1-1,.49c-1.58.41-3.11.77-4.58,1.08007-.63.1399-1.24.26-1.85.37a68.8467,68.8467,0,0,1-10.14,1.21,44.92409,44.92409,0,0,1-6.22-.13c-1.16-.09-2.26-.24-3.29-.41993a.64072.64072,0,0,1-.07-.02c-6.69-1.19006-11-3.96-13.79-6.82006a20.76,20.76,0,0,1-2.65-3.34,21.62076,21.62076,0,0,1-1.26-2.25,15.696,15.696,0,0,1-1.5-6.26c.08-.26.17005-.52.24006-.76h.00994c.13.03.27.05.41.07a2.69035,2.69035,0,0,0,.4.03h.13l8.98-.28a2.48533,2.48533,0,0,0,2.36-1.93994l1.9-8.46a1.91581,1.91581,0,0,0-1.93006-2.33007l-9.96.27a6.761,6.761,0,0,1,.7-.49c7.81-4.86,10.81994-14.14991,10.82995-14.21.82-2.91-2.98,12.53,8.72,11.5,11.69-1.02,15.02-13.28,15.63-12.78,6.84,5.61,9.63995,22.82006,9.63995,22.82006s.84,2.75,1.68006-1c1.37994-8.52,6.48-9.64013,11.28-9.64013C397.06317,78.2699,406.35315,84.79993,400.68317,95.03992Z"/><path class="cls-1" d="M331.46932,94.70806c-.06982.24-.15991.5-.24.76-.01-.28-.0199-.55-.0199-.83A1.97519,1.97519,0,0,0,331.46932,94.70806Z"/><path class="cls-2" d="M376.13729,172.57031a18.133,18.133,0,0,1-11.12006,6.94007c-2.73.42-6.78-.03-12.6-2.35-6.91-2.77-8.91-4.75-12.79-3.97-3.13.61988-4.62,2.15991-8.27,3.49-4.34,1.58985-11.16,2.12989-15.91-1.1001a11.23329,11.23329,0,0,1-1.03-.79v-.01a10.36031,10.36031,0,0,1-1.21-1.17994c-4.09-4.57006-5.44-12.47-2.75-20.3"/><path class="cls-4" d="M343.72933,81.79808l-9.96.27a3.30848,3.30848,0,0,0-1.23,2.18c-.01.07-.02.13-.03.2-.08.5-.15991,1.02-.26,1.55q-.14978.9-.33,1.86a.79335.79335,0,0,1-.01989.14c-.06006.37-.13013.75-.19007,1.14-.11.64-.20007,1.31-.28,1.98-.0299.24-.05993.49-.07995.73-.04.43-.08008.86-.1001,1.3v.03c-.03.44-.03992.89-.03992,1.34v.12a1.97519,1.97519,0,0,0,.25989.07h.01c.13013.03.27.05.41016.07a2.689,2.689,0,0,0,.3999.03h.13l8.98011-.28a2.48543,2.48543,0,0,0,2.35986-1.94l1.9-8.46A1.91566,1.91566,0,0,0,343.72933,81.79808Zm-4.34985,9.27a3.22,3.22,0,1,1,3.22-3.22A3.21795,3.21795,0,0,1,339.37948,91.068Z"/><path class="cls-1" d="M342.59945,87.84807a3.22,3.22,0,1,1-3.22-3.22A3.21792,3.21792,0,0,1,342.59945,87.84807Z"/><path class="cls-3" d="M414.82318,168.34c-.8-1.65992-1.74-3.59-2.79-5.7l-.45-.93c-.65-1.32-1.34-2.69006-2.04-4.1-.12994-.26-.26-.51-.38995-.77-1.57-3.14-3.24-6.43995-4.88-9.64-.28-.53992-.56-1.09-.84-1.63-.71-1.3899-1.42-2.75-2.11-4.07-.02-.03-.04-.07-.06-.1-.21-.41-.42-.8-.63-1.20007-.81-1.53992-1.59-3.00989-2.33-4.37-.12-.22-.24-.44-.35-.64991-.98-1.8-1.87-3.38012-2.62-4.65014-.08-.14991-.17-.28992-.25-.42993s-.16-.28-.25-.40992c-.08-.13012-.15-.25-.23-.38012-.07-.11988-.15-.24-.22-.35a13.77173,13.77173,0,0,0-1.05-1.51c.62-5.39.66-8.91.66-8.91s.26-12.29993-.43-17.67993c2.44-.48,5.03-2.05,7.12-5.82007,5.67-10.24-3.62-16.77-8.43-16.77-4.8,0-9.9,1.12011-11.28,9.64013-.84,3.75-1.68006,1-1.68006,1S376.49316,71.7,369.6532,66.09c-.61005-.5-3.94,11.76-15.63,12.78-11.7,1.03-7.9-14.41-8.72-11.5-.01.06-3.02,9.35-10.82995,14.21a6.761,6.761,0,0,0-.7.49,3.30835,3.30835,0,0,0-1.23,2.18c-.01.07-.02.13-.03.2a2.75937,2.75937,0,0,0-.24-.48s-1.28,1.93-3.38-.42a15.15786,15.15786,0,0,1-1.03-1.30994c-2.62-3.66-7.17-12.63-4.02-26.80994,3.63-16.34008,17.74-23.32006,21.64-24.83007,3.89-1.5,13.68006-3.67994,23.13.13a29.04484,29.04484,0,0,1,9.31,5.55994,8.851,8.851,0,0,1,1.97,2.47009l1.35.48.17005.05994,5.32995,1.91,5.58.46008a10.04349,10.04349,0,0,1,3.58,2.67994c2.68,2.84008,6.2,8.52,8.15,19.57006,3.43,19.48,1.14,43.86988,3.85,61.46,2.72,17.59,6.63995,40.72,7.26,42.45C415.23315,168.02991,415.10315,168.2,414.82318,168.34Z"/><path class="cls-1" d="M332.50936,84.44805c-.08.5-.15991,1.02-.26,1.55q-.14978.9-.33,1.86a.79335.79335,0,0,1-.01989.14c-.06006.37-.13013.75-.19007,1.14-.11.64-.20007,1.31-.28,1.98-.0299.24-.05993.49-.07995.73-.04.43-.08008.86-.1001,1.3v.03c-.03.44-.03992.89-.03992,1.34v.12a3.72418,3.72418,0,0,1-2.44006-2.4l-2.6499-8.24a1.33335,1.33335,0,0,1,1.24-1.75l.5-.01a15.13629,15.13629,0,0,0,1.03,1.31c2.09985,2.35,3.37988.42,3.37988.42A2.74571,2.74571,0,0,1,332.50936,84.44805Z"/><path class="cls-4" d="M374.82119,83.06079l-2.28174,8.66684a2.91778,2.91778,0,0,1-2.83307,1.99426l-10.80475.28324a4.47365,4.47365,0,0,1-4.38239-2.63349l-3.19238-8.44409a1.41951,1.41951,0,0,1,1.49085-1.79571l19.69165-.4636A2.07836,2.07836,0,0,1,374.82119,83.06079Z"/><path class="cls-3" d="M380.15327,40.10785a19.246,19.246,0,0,0,5.73641-6.81848,9.37807,9.37807,0,0,0,.77757-3.60733c-.0042-.83229-.01949-3.84059-2.13995-5.49924a4.89154,4.89154,0,0,0-4.8419-.49378c-2.24827,1.04981-2.96937,3.61778-3.22484,4.52758C375.0875,33.10618,380.15327,40.10785,380.15327,40.10785Z"/><path class="cls-3" d="M380.2207,40.20907a20.23638,20.23638,0,0,0,8.13569,4.791,11.43494,11.43494,0,0,0,4.08255.28521c.92391-.11716,4.26334-.54076,5.89717-2.879a4.478,4.478,0,0,0,.07293-4.89216c-1.38666-2.098-4.30937-2.468-5.34486-2.59909C387.49913,34.21041,380.2207,40.20907,380.2207,40.20907Z"/><path class="cls-4" d="M387.35046,85.52417a5.42965,5.42965,0,0,1,6.76589-1.08224,5.85374,5.85374,0,0,1,2.77339,5.62607,5.56793,5.56793,0,0,1-3.21643,4.412,5.02288,5.02288,0,0,1-1.66064.41919"/><path class="cls-4" d="M345.36514,85.99189a5.841,5.841,0,0,1,3.03881-.98166,5.97133,5.97133,0,0,1,4.00577,1.40847"/><circle class="cls-7" cx="360.44176" cy="87.84518" r="3.22059"/><path class="cls-7" d="M342.59945,87.84807a3.22,3.22,0,1,1-3.22-3.22A3.21792,3.21792,0,0,1,342.59945,87.84807Z"/><path class="cls-4" d="M372.00317,113.13l-.16.69-1.43,6.17c-.15.41-.3.83-.46,1.24-.05.13-.11.26-.15.38-1.67.36-3.26.67993-3.37.65-.09-.02-1.05.05994-2.4.15-.96.04993-2.12.10987-3.28.11988a22.81574,22.81574,0,0,1-4.33-.2699,25.20294,25.20294,0,0,1-2.93-.81006c-.95-.32-1.93-.68-2.82995-1.02991l-.84-.03c0,.03-.01.06995-.01.1l-.12-.37-.1-.28.1-.73.07-.52.15-1,.06994-.46.06-.39.06-.37.03-.15c.17-.99.31-1.72.37-2.05994,1.03.17994,2.13.33,3.29.41993a44.92409,44.92409,0,0,0,6.22.13,68.8467,68.8467,0,0,0,10.14-1.21C370.76318,113.39,371.37317,113.2699,372.00317,113.13Z"/><path class="cls-1" d="M350.50317,114.16c-.06.34-.2,1.06995-.37,2.05994l.3-2.08A.64072.64072,0,0,0,350.50317,114.16Z"/><path class="cls-1" d="M370.41321,119.99l-.29,1.24-.08.33c-.08.02-.16.03-.24.05.04-.12.1-.25.15-.38C370.11316,120.82,370.26318,120.4,370.41321,119.99Z"/><path class="cls-4" d="M346.16237,97.654a3.73859,3.73859,0,0,0,3.11762,3.29413,3.79167,3.79167,0,0,0,4.05883-3.47058"/><path class="cls-8" d="M370.04315,121.55994a30.278,30.278,0,0,1-1.01,4.08007c-.15.47-.32.95-.51,1.45-.13.03-.26.05-.39.08007-.13.02-.25.04993-.36.07-.26.04993-.5.1-.69.13-.16.03-.29.06-.39.07006a1.05319,1.05319,0,0,1-.15.0199c-.01,0-.03.01-.04.01h-.01a22.45575,22.45575,0,0,1-9.63.08.08994.08994,0,0,0-.05-.01c-.13-.02-.26-.04993-.39-.06995a20.32429,20.32429,0,0,1-2.01-.52991h-.01c-1.61005-.49011-3.41-1.17016-4.81-1.72009.01-.27991.01-.58.02-.87,0-.13.01-.26.01-.39V123.9c.01-.16.01-.32006.02-.49.02-.39013.03-.79.06-1.19006.03-.55994.07-1.14.11-1.73,0-.03.01-.07.01-.1l.84.03c.9.34986,1.87994.71,2.82995,1.02991a25.20294,25.20294,0,0,0,2.93.81006,22.81574,22.81574,0,0,0,4.33.2699c1.16-.01,2.32-.07,3.28-.11988,1.35-.09008,2.31-.17,2.4-.15.11.02991,1.7-.29,3.37-.65C369.88318,121.59,369.9632,121.58,370.04315,121.55994Z"/><path class="cls-4" d="M368.52319,127.09a25.41187,25.41187,0,0,1-3.22,5.92993q-.22494.31512-.48.63012a21.85311,21.85311,0,0,1-1.51,1.74l-.05.05c-.22.23-.45.45-.68.66993-.27.27-.56.52-.86.78-2.05,1.76-4.89,4.19-7.35,3.47a3.8861,3.8861,0,0,1-1.9-1.33008c-.12006-.14991-.24006-.30994-.35-.47-.13-.18994-.25-.3899-.37-.6a1.07739,1.07739,0,0,1-.06-.11l-.18-.33008c-.06-.11988-.11-.25-.17-.37989-.06-.12011-.11005-.25-.16-.38a1.80492,1.80492,0,0,1-.08-.21008c-.01,0-.01-.01-.02-.03-.08-.22-.17-.46-.24-.71-.06-.18994-.13-.3899-.18-.59-.05-.15-.09-.30994-.13-.48-.04-.16-.08-.33-.12-.5-.13-.51-.23-1.05994-.32-1.63-.03-.16993-.06-.34009-.08-.51-.04-.23-.07-.47-.1-.71-.05-.39-.09-.78-.13-1.19006-.07-.80994-.13-1.66-.16-2.54993q-.045-1.17-.03-2.43c1.4.54993,3.2,1.23,4.81,1.72009h.01a20.32429,20.32429,0,0,0,2.01.52991c.13.02.26.04993.39.06995a.08994.08994,0,0,1,.05.01,22.45575,22.45575,0,0,0,9.63-.08h.01c.01,0,.03-.01.04-.01a1.05319,1.05319,0,0,0,.15-.0199c.1-.01.23-.04.39-.07006.19-.03.43-.08008.69-.13.11-.02.23-.04993.36-.07C368.26318,127.14,368.39319,127.12,368.52319,127.09Z"/><path class="cls-9" d="M294.75317,309.04l-24.15.36a14.67776,14.67776,0,0,0-2.18994-5.48c-.13-.19-.25-.37-.39-.54a1.50631,1.50631,0,0,0,.41-.13c2.13-1.02,1.42-6.35-1.45-10.16a17.71823,17.71823,0,0,0-9.15-5.87h32.58a43.4775,43.4775,0,0,1,4.59,11.24C296.43317,304.25,297.86316,306.67,294.75317,309.04Z"/><path class="cls-5" d="M462.49316,306.56l-.09,22.56-.71.01v-.35l-10.72.47h-.12006l-68.08.75-43.29.48-2.77.03-38.2.42-86.76.95c-11.65-11.67-43.17-8.1-67.87-2.96-2.86-7.55-5.75-16-8.31-24.93a5.13681,5.13681,0,0,0,1.35-1,51.67732,51.67732,0,0,0,5.72-7.09l-2.8,6.36005a4.03689,4.03689,0,0,0,.63995.98c2.03,2.46,10.06,8.75,39.36005,9.9,15.61.61005,35.12-2.42,44.47-4.09l12.29.85.5-.01,22.58-.32995,10.92-.16,24.15-.36,7.63-.11h.01l37.66-.56.86005-.01,46.75-.69Z"/><polygon class="cls-10" points="461.693 328.78 461.693 329.13 450.973 329.25 461.693 328.78"/><polygon class="cls-10" points="336.793 331.02 336.473 376.99 336.473 377.01 336.253 408.46 336.063 436.25 336.123 408.23 336.183 381.51 336.183 381.48 336.283 333.33 336.283 333.3 336.293 331.03 336.633 331.02 336.793 331.02"/><polygon class="cls-5" points="461.693 328.78 461.693 329.13 459.303 515.3 446.603 516.41 448.813 329.34 450.853 329.25 450.973 329.25 461.693 328.78"/><polygon class="cls-5" points="336.663 330.82 336.633 331.02 336.293 331.03 336.283 333.3 336.283 333.33 336.183 381.48 336.183 381.51 336.123 408.23 336.063 436.25 335.503 516.41 330.353 515.49 330.943 416.73 331.043 399.25 331.043 399.24 331.243 366.77 331.243 366.76 331.453 331.36 336.663 330.82"/><polygon class="cls-11" points="336.793 330.81 336.793 331.02 336.473 376.99 336.473 377.01 336.253 408.46 336.063 436.25 336.123 408.23 336.183 381.51 336.183 381.48 336.283 333.33 336.283 333.3 336.293 331.03 336.633 331.02 336.663 330.82 336.793 330.81"/><path class="cls-1" d="M241.33319,287.22h.07a26.68749,26.68749,0,0,1,6.95-1.25A25.32318,25.32318,0,0,0,241.33319,287.22Z"/><path class="cls-9" d="M292.89319,182.03992c-1.04,1.05-2.64,2.60009-4.51,4.21008h64.2l-7.74,81.78992-.61005,6.47009h-159.16l9.43-88.26h71.63a28.50155,28.50155,0,0,1-3.2-4.21008h-72.7l-10.35,99.77008.04.21c9.75,2.14,21.41,3.93,31.06,5.42h.04l2.5-.22h27.81a25.32318,25.32318,0,0,1,7.02-1.25c.78-.04,1.36005-.03,1.65-.03.07,0,.32.01.7.02a2.65737,2.65737,0,0,0,.3.02c.32.02.73.05,1.21.1a30.111,30.111,0,0,1,5.62,1.14h89.49l1.08-10.53992.98-9.63012,1.1-10.82v-.01l2.3-22.52991,4.78-46.88012.49-4.77Zm-28.29,99.75006a2.61242,2.61242,0,0,1-4.56.67,2.56734,2.56734,0,0,1-.52-1.56,2.62,2.62,0,0,1,5.24,0A2.42,2.42,0,0,1,264.60315,281.79Z"/><path class="cls-5" d="M352.58319,186.25l-7.74,81.78992-.61005,6.47009h-159.16l9.43-88.26h71.63c.36.39.74.7699,1.12,1.15a31.275,31.275,0,0,0,6.63,5.28c3.64,1.86988,9.9-2.47009,14.5-6.43Z"/><path class="cls-4" d="M229.82318,308s-2.07.43-5.51,1.05c-9.35,1.67-28.86,4.7-44.47,4.09-29.3-1.15-37.33-7.44-39.36-9.9a4.03689,4.03689,0,0,1-.63995-.98l2.8-6.36005a.0098.0098,0,0,1,.01-.01c5.63995-8.01995,12.27-19.47992,12.82995-22.86a33.37746,33.37746,0,0,1,7.22,3.45007c3.52,2.08,9.82,3.91,17.22,5.54,9.75,2.14,21.41,3.93,31.06,5.42h.04c7.37,1.15,13.55,2.13,16.86,2.98.31.08.59,1.36.84,3.19a.27817.27817,0,0,1,.00994.09c.14,1.62006.34,3.63.56,5.62006v.03C229.63318,303.7,229.82318,308,229.82318,308Z"/><path class="cls-4" d="M229.29315,299.32c-.22-1.99-.42-4-.56-5.62006C228.95319,295.3,229.13318,297.31,229.29315,299.32Z"/><path class="cls-4" d="M268.43317,303.25a1.50631,1.50631,0,0,1-.41.13,1.80558,1.80558,0,0,1-.57.01h-.02c-2.27-.3-5.54-4.09-11.11-4.2a5.75305,5.75305,0,0,0-.59-.01h-.25994a17.38606,17.38606,0,0,0-6.7,1.6,11.43294,11.43294,0,0,0-3.98,2.91c-1.32995,1.6-1.47,2.99-3.31994,3.73a5.31363,5.31363,0,0,1-.8.25c-.13.03-.25.05-.38.07a.26231.26231,0,0,1-.15.02c-.11.02-.23.03-.34.04a7.49358,7.49358,0,0,1-1.16,0,2.34151,2.34151,0,0,0,.95-.5c.24-.26.06-1.95-.33-4.17v-.01c-.08-.44-.16-.9-.26-1.38-.02-.11-.05-.22-.07-.33l-.12-.6c-.17-.8-.35-1.63-.54-2.45-.08-.33-.15-.65-.23-.97-.06-.26-.12994-.51995-.19-.76995-.04108-.16431-.08215-.32477-.12323-.48615-.0545-.21313-.11145-.42242-.16724-.629-.0332-.1206-.06628-.24646-.09948-.36493-.01-.06-.03-.11-.04-.16-.06-.21-.12-.42-.17-.62-.08-.32-.17-.63-.26-.93-.01995-.06-.04-.13-.06-.19-.06-.19-.11-.38-.17-.55-.05-.18-.11-.35-.16-.51-.06-.17-.12-.33-.17-.48a4.04762,4.04762,0,0,0-.19-.5,3.08212,3.08212,0,0,0-.24-.51.54218.54218,0,0,0-.06-.11.39694.39694,0,0,0-.16-.16c.21-.19.42-.37.63-.55.18994-.15.37994-.3.57995-.44.17005-.13.35-.25.52-.36a17.26994,17.26994,0,0,1,3.89-1.85,26.68749,26.68749,0,0,1,6.95-1.25c.78-.04,1.36005-.03,1.65-.03.07,0,.32.01.7.02a2.65737,2.65737,0,0,0,.3.02c.32.02.73.05,1.21.1a30.111,30.111,0,0,1,5.62,1.14,17.71823,17.71823,0,0,1,9.15,5.87C269.85315,296.9,270.56317,302.23,268.43317,303.25Z"/><path class="cls-12" d="M236.76318,292.69c.08.23.15.48.23.74-.01995-.06-.04-.13-.06-.19C236.87317,293.05,236.82318,292.86,236.76318,292.69Z"/><path class="cls-12" d="M239.5932,307.3a2.34151,2.34151,0,0,1-.95.5h-.04a2.28787,2.28787,0,0,0,.94-.5c.24-.26.06-1.95-.32995-4.17v-.01c-.43-2.42005-1.1-5.47-1.75-7.98005-.01-.06-.03-.11-.04-.16.04986.16943.093.35254.13952.5249.03681.13391.07367.26306.11048.40509.05.21.11.43.17.65,0,.02.01.04.01.06.06006.25.13.51.19.76995.08.32.15.64.23.97.19.82.37,1.65.54,2.45l.12.6c.02.11.05.22.07.33.1.48.18.94.26,1.38v.01C239.6532,305.35,239.83319,307.04,239.5932,307.3Z"/><path class="cls-12" d="M241.33319,287.22a25.32318,25.32318,0,0,1,7.02-1.25,26.68749,26.68749,0,0,0-6.95,1.25,17.26994,17.26994,0,0,0-3.89,1.85A16.19988,16.19988,0,0,1,241.33319,287.22Z"/><path class="cls-2" d="M105.97321,442.67l-3.26,2.73a20.64532,20.64532,0,0,0-6.55-2.11c.17-2.59,1.72-3.1,1.72-3.1l.59-.15C98.2132,440.38,101.48315,440.91,105.97321,442.67Z"/><path class="cls-2" d="M133.38318,477.88v.01c-.07.09-.13.18006-.19.26-3.09,3.96-8.12,2.62-8.12,2.62s-.52-.34-1.21-.8c0-7.14,0-16.11-.01-25.22C128.86316,459.32,134.0332,466.04,133.38318,477.88Z"/><path class="cls-2" d="M138.25317,457.86s-.28,2.3-.78,5.37v-.05a31.13245,31.13245,0,0,1,.50994-5.71C138.1532,457.72,138.25317,457.86,138.25317,457.86Z"/><path class="cls-6" d="M120.69318,505.68a12.107,12.107,0,0,1-8.82,4.13,1.62884,1.62884,0,0,0,1.01-.72c.71-1.37,2.51-6.47.44-17.46-.12-.62-.26-1.28-.43-1.96-.03-.1-.05-.2-.08-.31-3.32-12.99-15.23-35.03-20.14-40.35a13.0896,13.0896,0,0,0-11.03-4.32l-.04-.1,6.24-1.22a25.55117,25.55117,0,0,1,8.32-.08,20.64532,20.64532,0,0,1,6.55,2.11l-2.26,1.9s-.7,4.19,5.35,9.54c3.95,3.49,6.37,4.39,7.93,4.39l.29,9.02v.01l.74,23.76a2.36527,2.36527,0,0,0,2.34,2.74,27.37719,27.37719,0,0,0,4.43-.05s2.2.14,2.29-1.88c.01-.26.02-1.78.02-4.25C124.20319,496.63,123.50317,502.57,120.69318,505.68Z"/><path class="cls-5" d="M112.88318,509.09a1.62884,1.62884,0,0,1-1.01.72h-.02a9.59926,9.59926,0,0,1-2.26-.17005,1.55333,1.55333,0,0,0,1.07-.9c.43994-1.31,1.4-5.9-.58-15.21-.07-.34-.15-.7-.24-1.06-.08-.37-.17-.75-.26-1.14-.04-.16-.08-.33-.13-.5-.12-.47-.25-.95-.41-1.45-3.76-12.67-15.62-34.05-20.18-39.03a10.68879,10.68879,0,0,0-6.32-3.59v-.01a8.33913,8.33913,0,0,0-3.74.21,10.03841,10.03841,0,0,0-1.07.98,7.76374,7.76374,0,0,1,3.27-3.16,6.15042,6.15042,0,0,1,.64-.09,13.0896,13.0896,0,0,1,11.03,4.32c4.91,5.32,16.82,27.36,20.14,40.35.03.11.05.21.08.31.17.68.31,1.34.43,1.96C115.39319,502.62,113.5932,507.72,112.88318,509.09Z"/><path class="cls-5" d="M111.85315,509.81a6.707,6.707,0,0,1-3.11.01,3.54575,3.54575,0,0,0,.85-.18006A9.59926,9.59926,0,0,0,111.85315,509.81Z"/><path class="cls-5" d="M110.66321,508.74a1.55333,1.55333,0,0,1-1.07.9,3.54575,3.54575,0,0,1-.85.18006h-.01a8.29151,8.29151,0,0,1-4.72-1.26c-1.18-.72-3.9-4.05-7.02-8.22-1.01-1.35-2.05-2.78-3.11-4.24a.30539.30539,0,0,0-.05-.07c-1.42-1.98-2.85-4.02-4.19-5.96-2.1-3.05-3.99-5.88-5.31-7.92005-4.7-7.31-9.1-17.54-8.96-24.43.11-5.66.86-8.1,2.35-9.76a.035.035,0,0,0,.00994-.02,10.03841,10.03841,0,0,1,1.07-.98,8.33913,8.33913,0,0,1,3.74-.21v.01a10.68879,10.68879,0,0,1,6.32,3.59c4.56,4.98,16.42,26.36,20.18,39.03.16.5.29.98.41,1.45.05.17.09.34.13.5.09.39.18.77.26,1.14.09.36.17.72.24,1.06C112.06317,502.84,111.10315,507.43,110.66321,508.74Z"/><path class="cls-4" d="M113.73315,461.23c-1.56,0-3.98-.9-7.93-4.39-6.05-5.35-5.35-9.54-5.35-9.54l2.26-1.9,3.26-2.73a43.4035,43.4035,0,0,1,7.3,3.64l.36,11.51v.01Z"/><path class="cls-2" d="M113.27319,446.31a43.4035,43.4035,0,0,0-7.3-3.64c-4.49006-1.76-7.76-2.29-7.5-2.63h.00994v-.01c.01-.01.02-.01.03-.02a144.58321,144.58321,0,0,0,14.23-10.36005l.21,6.64.15,4.67Z"/><path class="cls-2" d="M165.43317,441.28v.01l-.46.32a10.934,10.934,0,0,0-2.1,8.36,25.03642,25.03642,0,0,0-12.94-1.14l-6.24,1.22.04.1a6.18777,6.18777,0,0,0-.63.09,7.59479,7.59479,0,0,0-3.3,3.2,8.098,8.098,0,0,0-1.82,4.02v.01a31.13245,31.13245,0,0,0-.50994,5.71v.05a29.2581,29.2581,0,0,0,1.62994,9.08c-2.87994,3.26-5.77,6.4-5.73,5.86a2.61751,2.61751,0,0,0,.01-.28v-.01c.65-11.84-4.52-18.56-9.53-23.13v-.01c0-4.87-.01-9.77-.02-14.46v-.01c0-7.67-.01-14.75-.02-20.13,4.42-3.98,8.06-7.46,10.17-9.51,13.21-.27,25.96-.71,35.12-1.37.11005-.01.22-.01.33-.02.93-.04,1.45-.07,1.45-.07a39.7723,39.7723,0,0,0,4.12-.42,46.97258,46.97258,0,0,0,6.06-.96,40.6049,40.6049,0,0,0,4.23-1.35c.11005.46.2.96.28,1.5C187.02319,417.55,169.35315,436.45,165.43317,441.28Z"/><path class="cls-2" d="M169.10315,409.26c-9.16.66-21.91,1.1-35.12,1.37a.6072.6072,0,0,1,.08-.08C147.83319,410.24,163.83319,409.51,169.10315,409.26Z"/><path class="cls-2" d="M169.43317,409.24c2.06-.16,3.93-.32,5.57-.49a39.7723,39.7723,0,0,1-4.12.42S170.36316,409.2,169.43317,409.24Z"/><path class="cls-2" d="M138.25317,457.86s-.28,2.3-.78,5.37v-.05a31.13245,31.13245,0,0,1,.50994-5.71C138.1532,457.72,138.25317,457.86,138.25317,457.86Z"/><path class="cls-2" d="M192.08319,402.89a32.98363,32.98363,0,0,1-6.79,3.55,40.6049,40.6049,0,0,1-4.23,1.35,46.97258,46.97258,0,0,1-6.06.96,50.2802,50.2802,0,0,0,10.23-2.59,36.47349,36.47349,0,0,0,6.82-3.35C192.06317,402.84,192.07318,402.86,192.08319,402.89Z"/><path class="cls-2" d="M197.60315,488.11a.84457.84457,0,0,0,.16.69c-2.68.93-5.48-.09-9.04-1.46a19.57223,19.57223,0,0,1-4.61005-2.84c-.08-.34-.17-.66-.26-.98a106.82288,106.82288,0,0,0-3.93-11.72,94.77943,94.77943,0,0,0,11.78-8.23C195.57318,469.86,198.86316,476.47,197.60315,488.11Z"/><path class="cls-2" d="M163.66321,449.03s.03.49.17,1.34c-.32-.14-.64-.28-.96-.4a10.934,10.934,0,0,1,2.1-8.36l.46-.32c-.65.79-.91,1.21-.66,1.13a9.74719,9.74719,0,0,1,6.25.44Z"/><path class="cls-6" d="M182.79315,511.14a12.149,12.149,0,0,1-8.82995,4.13,1.61583,1.61583,0,0,0,1.01995-.72c.7-1.37,2.51-6.47.43006-17.46-1.95-10.33-11.19-28.8-17.28-38.11a38.26067,38.26067,0,0,0-3.36-4.52,13.1063,13.1063,0,0,0-11.04-4.31l-.04-.1,6.24-1.22a25.03642,25.03642,0,0,1,12.94,1.14c.32.12.64.26.96.4a27.61722,27.61722,0,0,0,1.21,4.79,26.75287,26.75287,0,0,0,3.99,7.45c4.93,6.39,8.86,9.54,9.81,9.62a2.99915,2.99915,0,0,0,1.08-.43,106.82288,106.82288,0,0,1,3.93,11.72c.09.32.18.64.26.98C186.27319,492.79,187.50317,505.94,182.79315,511.14Z"/><path class="cls-5" d="M174.98315,514.55a1.61583,1.61583,0,0,1-1.01995.72,6.75911,6.75911,0,0,1-3.15,0,3.72573,3.72573,0,0,0,.87-.17,1.53034,1.53034,0,0,0,1.07-.9c.48-1.41,1.56-6.62-1.08-17.41-2.41-9.89-11.23-26.96-17.08-36.01a41.14136,41.14136,0,0,0-3.63-4.97,10.73315,10.73315,0,0,0-6.33-3.6,8.26268,8.26268,0,0,0-3.74.2,7.62443,7.62443,0,0,0-1.09,1.03,7.59479,7.59479,0,0,1,3.3-3.2,6.18777,6.18777,0,0,1,.63-.09,13.1063,13.1063,0,0,1,11.04,4.31,38.26067,38.26067,0,0,1,3.36,4.52c6.09,9.31,15.33,27.78,17.28,38.11C177.49316,508.08,175.68317,513.18,174.98315,514.55Z"/><path class="cls-5" d="M163.94318,503.71h-.01C163.66321,503.56,164.26318,503.7,163.94318,503.71Z"/><path class="cls-5" d="M172.75317,514.19995a1.53034,1.53034,0,0,1-1.07.9,3.72573,3.72573,0,0,1-.87.17,7.81058,7.81058,0,0,1-4.35-1.07,4.2192,4.2192,0,0,0,.66-.36,5.72649,5.72649,0,0,0,2.27-5.77,4.95886,4.95886,0,0,0-3.02-3.9,5.43693,5.43693,0,0,0-2.39-.44l-.04-.01c-.01,0-.01,0-.01-.01h.01c.32-.01-.28-.15-.01,0a6.95359,6.95359,0,0,0-3.94,1.96,6.03356,6.03356,0,0,0-.56.58c-1.28-1.69-2.62-3.53-3.96-5.41-2.37006-3.31-4.72-6.73-6.63-9.58-.92-1.37006-1.74-2.61005-2.41-3.65a68.69544,68.69544,0,0,1-7.33-15.3,29.2581,29.2581,0,0,1-1.62994-9.08c.5-3.07.78-5.37.78-5.37s-.1-.14-.27-.39v-.01a8.098,8.098,0,0,1,1.82-4.02,7.62443,7.62443,0,0,1,1.09-1.03,8.26268,8.26268,0,0,1,3.74-.2,10.73315,10.73315,0,0,1,6.33,3.6,41.14136,41.14136,0,0,1,3.63,4.97c5.85,9.05,14.67,26.12,17.08,36.01C174.31317,507.58,173.23315,512.79,172.75317,514.19995Z"/><path class="cls-5" d="M163.94318,503.71h-.01C163.66321,503.56,164.26318,503.7,163.94318,503.71Z"/><path class="cls-5" d="M138.25317,457.86s-.28,2.3-.78,5.37v-.05a31.13245,31.13245,0,0,1,.50994-5.71C138.1532,457.72,138.25317,457.86,138.25317,457.86Z"/><path class="cls-4" d="M191.70319,463.57a94.77943,94.77943,0,0,1-11.78,8.23,2.99915,2.99915,0,0,1-1.08.43c-.95-.08-4.88-3.23-9.81-9.62a26.75287,26.75287,0,0,1-3.99-7.45,27.61722,27.61722,0,0,1-1.21-4.79c-.14-.85-.17-1.34-.17-1.34l7.36-6.17a24.31475,24.31475,0,0,1,6.85,4.24c6.81,5.69,12.56,14.43,13.71,16.28C191.62317,463.44,191.66321,463.51,191.70319,463.57Z"/><path class="cls-2" d="M226.06317,467.77c-4.48,5.2-26.24,23.38-28.3,21.03a.84457.84457,0,0,1-.16-.69c1.26-11.64-2.03-18.25-5.9-24.54-.04-.06-.08-.13-.12-.19-1.15-1.85-6.9-10.59-13.71-16.28a24.31475,24.31475,0,0,0-6.85-4.24,9.74719,9.74719,0,0,0-6.25-.44c-.25.08.01-.34.66-1.13v-.01c3.92-4.83,21.59-23.73,20.14-33.34-.08-.54-.17-1.04-.28-1.5a32.98363,32.98363,0,0,0,6.79-3.55,31.74133,31.74133,0,0,0,2.88-2.22,4.96836,4.96836,0,0,0,.44-.38,19.75445,19.75445,0,0,0,1.81-1.74c.01995-.01.03-.03.05-.05,5.49-5.68,10.47-14.53,14.32-28.57,9.26,1.38,16.46,2.7,17.96,3.61,4.92005,2.97,16.04,11.04,16.83,22.33C247.16321,407.16,254.94318,434.21,226.06317,467.77Z"/><path class="cls-2" d="M192.05316,402.8a25.46653,25.46653,0,0,0,2.91-2.13,31.74133,31.74133,0,0,1-2.88,2.22,32.98363,32.98363,0,0,1-6.79,3.55c-.02-.1-.04-.19-.06-.28a36.47349,36.47349,0,0,0,6.82-3.35Z"/><path class="cls-2" d="M195.4032,400.29c.61-.54,1.21-1.12,1.81-1.74A19.75445,19.75445,0,0,1,195.4032,400.29Z"/><path class="cls-2" d="M209.2832,369.59a117.734,117.734,0,0,1-10.43,23.56c-5.5-6.72-50.99.1-67.17,3.68.27-.71.54-1.49.79-2.34v-.01c9.35-8.04,23.7-27.9,26.03-31.17l.31-.03S188.30316,366.54,209.2832,369.59Z"/><path class="cls-13" d="M143.88318,328.92c-6.2,1.29-11.96,2.68-16.88,3.95-1.47-9.45-3.35-20.24-5.57-30.95-.8-3.88-1.65-7.74-2.54-11.53a93.89881,93.89881,0,0,0,13.88,12.31,25.29666,25.29666,0,0,0,2.17,1.34.68744.68744,0,0,0,.63-.05C138.13318,312.92,141.02319,321.37,143.88318,328.92Z"/><path class="cls-13" d="M158.83319,362.85s-.11.16-.33.46c-2.33,3.27-16.68,23.13-26.03,31.17a50.586,50.586,0,0,0,1.21-5.33c.67-3.79-.06-8.82-1.02-14.63995-.74-4.51-1.63-9.5-2.1-14.76-.25-2.84-.81-7.61005-1.62-13.65,5.77-1.32,12.72-2.83,20.12-4.25C154.51318,354.71,158.83319,362.85,158.83319,362.85Z"/><path class="cls-13" d="M155.48315,273.02991c-.56,3.38012-7.19,14.84009-12.82995,22.86a.0098.0098,0,0,0-.01.01,51.67732,51.67732,0,0,1-5.72,7.09,5.13681,5.13681,0,0,1-1.35,1,.68744.68744,0,0,1-.63.05,25.29666,25.29666,0,0,1-2.17-1.34,93.89881,93.89881,0,0,1-13.88-12.31c-1.14-4.87-2.35-9.61-3.62-14.08-.55-1.93994-1.12-3.83-1.69-5.64991-9.45-30.08007-31.76-27.83007-32.98-27.82006-.6,0-9.23-.29-20.03-.18995.63-4.3601,3.48-19.06005,13.44-26.09008a30.723,30.723,0,0,1,7.05-3.78,36.07454,36.07454,0,0,0,11.98,4.90014,44.14089,44.14089,0,0,0,16.27.91993c1.2.37,6.2,6.41,10.53,14.08007,4.61,8.16993,11.2,16.80994,14.72,19.74,3.52,2.92994,17.78,18.87989,20.68,19.6399C155.51318,272.13,155.58319,272.47,155.48315,273.02991Z"/><path class="cls-4" d="M118.94318,215.57a32.22718,32.22718,0,0,1-9.63,3.03,44.14089,44.14089,0,0,1-16.27-.91993,36.07454,36.07454,0,0,1-11.98-4.90014,22.25968,22.25968,0,0,1-8.43-9.34986c-2.98,1.27991-6.68,1.64991-10.05-1.5-8.84-8.27-3.47-16.87011,1.81-19.38012.01.01.01.01.02,0a.94622.94622,0,0,0,.56994.05,33.02625,33.02625,0,0,1,4.52-.52h.02a27.05105,27.05105,0,0,0,3.97.1101h.04c1.28.2,2.23.57984,2.43,1.2699,3.67,12.37,4.26995,13.77,6.7,18.21008,1.43,2.59986,3.62,4.16993,3.54,3.17994-1.61-20.62,7.36-34.05,7.36-34.05s9.75,15.1101,18.21,13.65c8.46-1.45,6.09-14.00989,6.09-14.00989s6.39,12.54993,12.14,15.89991v.01c.04.82006.09,1.68994.14,2.58007,0,.07.01.14991.01.22.16,3.05994.35,6.29993.54,8.51.01.09.01.16993.02.25.03.48.07995.89991.11,1.26C131.27319,203.47,130.60315,209.74,118.94318,215.57Z"/><path class="cls-4" d="M69.50317,182.08a33.02625,33.02625,0,0,0-4.52.52.94622.94622,0,0,1-.56994-.05,6.06148,6.06148,0,0,1,3.5-.66993C68.45319,181.97,68.98315,182.03992,69.50317,182.08Z"/><path class="cls-8" d="M138.00317,172.58c-.11,3.31-1.53,15.43994-6.18,14.5a5.98373,5.98373,0,0,1-1.82-.73v-.01c-5.75-3.35-12.14-15.89991-12.14-15.89991s2.37,12.55994-6.09,14.00989c-8.46,1.46008-18.21-13.65-18.21-13.65s-8.97,13.43005-7.36,34.05005c.08.99-2.11-.58008-3.54-3.17994-2.43006-4.44006-3.03-5.84008-6.7-18.21008-.2-.69006-1.15-1.07-2.43-1.2699h-.04a21.428,21.428,0,0,0-3.97-.1101h-.02c-.52-.04-1.05-.11-1.59-.2a6.06148,6.06148,0,0,0-3.5.66993c-.01.01-.01,0-.02,0-4.31-1.49-10.39-27.35,11.1-36.02h.01a37.81614,37.81614,0,0,1,8.71-2.2699c.12-.02.24-.03.37-.05h.01c.19-.15,12.42-13.58,38.04-6.89C139.06317,141.6,138.16321,168.02991,138.00317,172.58Z"/><path class="cls-8" d="M69.50317,182.08a33.02625,33.02625,0,0,0-4.52.52.94622.94622,0,0,1-.56994-.05,6.06148,6.06148,0,0,1,3.5-.66993C68.45319,181.97,68.98315,182.03992,69.50317,182.08Z"/><path class="cls-8" d="M84.2132,144.26a37.81614,37.81614,0,0,0-8.71,2.2699h-.01a19.78389,19.78389,0,0,1-4.74.03c-.53-.07-7.45-2.78-3.05-6.76C72.81317,135.19006,83.35315,143.57,84.2132,144.26Z"/><path class="cls-8" d="M84.67934,144.00627s2.978-5.154,2.377-9.22c-.6-4.066-3.271-7.018-6.323-6.568-3.053.451-5.042,4.817-1.651,9.621C82.47234,142.64226,84.67934,144.00627,84.67934,144.00627Z"/><path class="cls-8" d="M123.80316,410.11v.11c-.17-.06-.33-.12-.49-.19Z"/><path class="cls-6" d="M123.86316,479.97c0,4.31-.01,7.95-.02,10.56v.05c0,2.47-.01,3.99-.02,4.25-.09,2.02-2.29,1.88-2.29,1.88a27.37719,27.37719,0,0,1-4.43.05,2.36527,2.36527,0,0,1-2.34-2.74l-.74-23.76v-.01l-.29-9.02-.1-3.4v-.01l-.36-11.51-.17-5.35-.15-4.67-.21-6.64v-.01l-.56-17.97v-.69c3.79-.05,7.69-.1,11.62-.16,0,1.38995.01,4.73.01,9.31994.01,5.38.02,12.46.02,20.13v.01c.01,4.69.02,9.59.02,14.46v.01C123.86316,463.86,123.86316,472.83,123.86316,479.97Z"/><path class="cls-14" d="M119.53334,184.22927c.297.064,7.497.046,7.497.046"/><path class="cls-6" d="M123.80316,410.22v.6c-3.93.06-7.83.11-11.62.16-11.52.12-22.01.15-29.17.16,15.31-1,30.91-3.44,36.84-4.81994a7.46174,7.46174,0,0,0,3.45,3.7l.01.01C123.47321,410.1,123.63318,410.16,123.80316,410.22Z"/><path class="cls-8" d="M123.80316,410.11v.11c-.17-.06-.33-.12-.49-.19Z"/><path class="cls-15" d="M133.98315,410.63c-2.11,2.05-5.75,5.53-10.17,9.51,0-4.59-.01-7.93-.01-9.31994C127.19318,410.77,130.60315,410.7,133.98315,410.63Z"/><path class="cls-8" d="M169.10315,409.26c-9.16.66-21.91,1.1-35.12,1.37-3.38.07-6.79.14-10.18.19v-.6a9.91142,9.91142,0,0,0,3.42.45c2.17-.02,4.47-.07,6.84-.12C147.83319,410.24,163.83319,409.51,169.10315,409.26Z"/><path class="cls-8" d="M194.9632,400.67a31.74133,31.74133,0,0,1-2.88,2.22,32.98363,32.98363,0,0,1-6.79,3.55,40.6049,40.6049,0,0,1-4.23,1.35,46.97258,46.97258,0,0,1-6.06.96,50.2802,50.2802,0,0,0,10.23-2.59,36.47349,36.47349,0,0,0,6.82-3.35v-.01A25.46653,25.46653,0,0,0,194.9632,400.67Z"/><path class="cls-6" d="M216.07318,347.4a181.11077,181.11077,0,0,1-4.49,22.53c-3.85,14.04-8.83,22.89-14.32,28.57q.27-.285.54-.6c1.76-2.04,2-3.59,1.05-4.75a117.734,117.734,0,0,0,10.43-23.56c2.63-8.24,4.47-17.28,3.97-25.37-.75-12.1-35.8-7.84-64.19-2.37-7.4,1.42-14.35,2.93-20.12,4.25-.41-3.01-.89-6.34-1.43-9.9q-.24-1.63494-.51-3.32995c4.92-1.27,10.68-2.66,16.88-3.95,24.7-5.14,56.22-8.71,67.87,2.96C215.33319,335.47,217.04315,340.51,216.07318,347.4Z"/><path class="cls-6" d="M197.80316,397.9q-.27.315-.54.6c-.02.02-.03.04-.05.05-.6.62-1.2,1.2-1.81,1.74a4.96836,4.96836,0,0,1-.44.38,25.46653,25.46653,0,0,1-2.91,2.13v.01a36.47349,36.47349,0,0,1-6.82,3.35,50.2802,50.2802,0,0,1-10.23,2.59c-1.64.17-3.51.33-5.57.49-.11.01-.22.01-.33.02-5.27.25-21.27.98-35.04,1.29-2.37.05-4.67.1-6.84.12a9.91142,9.91142,0,0,1-3.42-.45v-.11l-.49-.08-.01-.01a7.46174,7.46174,0,0,1-3.45-3.7c-.07-.12006-.13995-.26-.21-.39a3.62989,3.62989,0,0,1-.4-1.22,2.9232,2.9232,0,0,1,.08-1.32,7.64832,7.64832,0,0,0,1.99,1.69c.53.08.91.14,1.12.16,1.85.19,3.42-.38,5.32-2.24l.02-.02c.25-.24.5-.5.76-.79a16.71523,16.71523,0,0,0,3.15-5.36c16.18-3.58,61.67-10.4,67.17-3.68C199.80316,394.31,199.56317,395.86,197.80316,397.9Z"/><path class="cls-8" d="M123.31317,410.03l.49.08v.11C123.63318,410.16,123.47321,410.1,123.31317,410.03Z"/><path class="cls-8" d="M127.73315,402.98h.04l-.02.02C127.74316,402.99,127.74316,402.98,127.73315,402.98Z"/><path class="cls-8" d="M175.00317,408.75a39.7723,39.7723,0,0,1-4.12.42s-.52.03-1.45.07C171.49316,409.08,173.36316,408.92,175.00317,408.75Z"/><path class="cls-8" d="M197.2132,398.55a19.75445,19.75445,0,0,1-1.81,1.74C196.01318,399.75,196.61316,399.17,197.2132,398.55Z"/><path class="cls-6" d="M133.68317,389.15a50.586,50.586,0,0,1-1.21,5.33v.01c-.25.85-.52,1.63-.79,2.34a16.71523,16.71523,0,0,1-3.15,5.36c-.26.29-.51.55-.76.79h-.04c.01,0,.01.01.02.02-1.9,1.86-3.47,2.43-5.32,2.24-.21-.02-.59-.08-1.12-.16a7.64832,7.64832,0,0,1-1.99-1.69c-3.59-4.03-7.72-13.48-10.2-22.56994-1.13-4.11005-2.09-14.36-2.94-26.48-.3-4.29-.59-8.82-.87-13.39-.91-15.32995-1.69-31.15-2.38-40.31-.16-2.19-.32-4.01-.48-5.34-1.04-8.85-2.69-18.88-6.92-25.41a14.31528,14.31528,0,0,0-8.35-6.53.26076.26076,0,0,0-.08-.03c-4.86-1.28-64.06,2.76-73.23,4.75-9.16,1.99-9.03,6.34008-8.97,8.77a2.45384,2.45384,0,0,0,.04.37c-1.87-4.01-4.88-11.22-4.39-15.28992.72-5.85009,7.75-13.62011,26.14-16.96008,9.32-1.70007,22.75-2.22,33.87-2.31995h.01c10.8-.10009,19.43.18995,20.03.18995,1.22-.01,23.53-2.26,32.98,27.82006.57,1.82,1.14,3.71,1.69,5.64991,1.27,4.47,2.48,9.21,3.62,14.08.89,3.79,1.74,7.65,2.54,11.53,2.22,10.71,4.1,21.5,5.57,30.95q.27,1.695.51,3.32995c.54,3.56006,1.02,6.89,1.43,9.9.81,6.04,1.37,10.81,1.62,13.65.47,5.26,1.36,10.25,2.1,14.76C133.62317,380.33,134.35315,385.36,133.68317,389.15Z"/><path class="cls-8" d="M127.77319,402.98l-.02.02c-.01-.01-.01-.02-.02-.02Z"/><path class="cls-6" d="M119.85315,406.32c-5.93,1.37994-21.53,3.81994-36.84,4.81994-11.2.74-22.24.7-29.23-1.06994-19.83-5.03-35.58-8.53-34.08-40.15,1.49-31.62,5.13-48.15-.85-65.37-5.75995-16.57-13.28-24.05-13.91-27.33a2.45384,2.45384,0,0,1-.04-.37c-.06-2.42994-.19-6.78,8.97-8.77,9.17-1.99,68.37-6.03,73.23-4.75a.26076.26076,0,0,1,.08.03,14.31528,14.31528,0,0,1,8.35,6.53c4.23,6.53,5.88,16.55994,6.92,25.41.16,1.33.32,3.15.48,5.34.69,9.16,1.47,24.98005,2.38,40.31.28,4.57.57,9.1.87,13.39.85,12.12,1.81,22.37,2.94,26.48,2.48,9.09,6.61,18.54,10.2,22.56994a2.9232,2.9232,0,0,0-.08,1.32,3.62989,3.62989,0,0,0,.4,1.22C119.7132,406.06,119.7832,406.2,119.85315,406.32Z"/><path class="cls-9" d="M270.60315,309.4l-10.92.16-22.58.32995-.5.01-12.29-.85c3.44-.62,5.51-1.05,5.51-1.05s-.19-4.3-.53-8.65c.45,4.18.96,8.24.96,8.24s.29,1.03,1.98,1.12a24.53173,24.53173,0,0,0,5.07-.55,9.17762,9.17762,0,0,0,1.34-.36,7.49358,7.49358,0,0,0,1.16,0c.11005-.01.23-.02.34-.04a.26231.26231,0,0,0,.15-.02,1.59646,1.59646,0,0,0,.38-.07,4.24321,4.24321,0,0,0,.88-.25c1.87-.74,2.01-2.13,3.36005-3.73a11.53414,11.53414,0,0,1,4.03-2.91,17.83853,17.83853,0,0,1,6.79-1.6,5.75305,5.75305,0,0,1,.59.01c5.57.11,8.84,3.9,11.11,4.2h.02a1.80558,1.80558,0,0,0,.57-.01c.14.17.26.35.39.54A14.67776,14.67776,0,0,1,270.60315,309.4Z"/><path class="cls-1" d="M241.4032,287.22a17.26994,17.26994,0,0,0-3.89,1.85c-.17.11-.35.23-.52.36-.2.14-.39.29-.57995.44-.21.18-.42005.36-.63.55-.02-.02-.03-.02-.04-.02-.95-.07-6.6-.7-7.09-.09a13.29843,13.29843,0,0,0,.07,3.3c-.25-1.83-.53-3.11-.84-3.19-3.31-.85-9.49-1.83-16.86-2.98l2.5-.22Z"/><path class="cls-16" d="M239.54315,309.58147a2.22522,2.22522,0,0,1-.94.56611h.04a8.34225,8.34225,0,0,1-1.34.40759,21.78305,21.78305,0,0,1-5.07.62272,1.97013,1.97013,0,0,1-1.98-1.2681s-.51-4.59686-.96-9.32958v-.03393c-.16-2.27579-.34-4.55159-.56-6.3632a.35476.35476,0,0,0-.00994-.10186,17.0325,17.0325,0,0,1-.07-3.73635c.49-.69072,6.13995.02259,7.09.10186.01,0,.02,0,.04.02266a.42434.42434,0,0,1,.16.18113.64214.64214,0,0,1,.06.1246,3.71223,3.71223,0,0,1,.24.57738c.06.16986.13.36232.19.56611.05.16987.11.35106.17.54352.05.18113.11005.37366.16.57745a3.81391,3.81391,0,0,1,.11.40759c.02.06793.04.14719.06.21513.02.06793.04.14719.06.21512.08.33966.17005.69065.26,1.053.05.22646.11.46418.17.702.01.0566.03.11319.04.18112.01.05667.03.11327.04.16987.64,2.80791,1.29,6.182,1.71,8.86539v.01133C239.60315,307.3736,239.7832,309.28708,239.54315,309.58147Z"/><path class="cls-5" d="M229.29315,299.32c-.22-1.99-.42-4-.56-5.62006C228.95319,295.3,229.13318,297.31,229.29315,299.32Z"/><path class="cls-14" d="M89.4315,188.91656l2.129,7.865,17.551.172,1.924-6.732,3.194-.241,2.816,7.557,16.804.46,2.516-8.821"/><path class="cls-14" d="M106.81734,185.73926s-10.066-.039-10.228.049"/><path class="cls-17" d="M124.22725,492.05768s28.721-.045,31.953,2.412c3.233,2.456,6.257,8.355,7.147,10.787"/><path class="cls-17" d="M113.56325,491.02765s-32.547-.05-36.21,2.739-7.09,9.49-8.098,12.251"/><path class="cls-17" d="M124.78123,494.30066s17.307,2.796,19.009,4.55c1.701,1.753,2.933,5.499,3.226,7.008"/><path class="cls-17" d="M112.93724,493.57563s-19.614,3.175-21.542,5.16705c-1.929,1.991-3.324,6.246-3.656,7.96"/><path class="cls-18" d="M163.94318,503.71h-.01C163.66321,503.56,164.26318,503.7,163.94318,503.71Z"/><path class="cls-6" d="M407.94318,457.13a29.14856,29.14856,0,0,1-7.47,9.89,54.04367,54.04367,0,0,1-15.28,9.53q-2.595,1.125-5.58,2.16c-2.17.75-24.06-35.94-24.06-35.94l-3.65-6.49.71-105.64-13.16.31.03-.47,43.29-.48c-5.16,23.68-10.62,49.05-10.99,50.44-.57,2.14,32.55,68.27,36.11,75.38A1.5418,1.5418,0,0,1,407.94318,457.13Z"/><path class="cls-4" d="M389.22321,481.18c-.11005-.13-.22-.26-.35-.41-1.01-1.18-2.58-2.96-3.68-4.22a54.04367,54.04367,0,0,0,15.28-9.53c1.26995,1.63,3.16,4.07,4.63995,6,.14.18.27.35.4.52C407.9632,476.7,390.81317,483.07,389.22321,481.18Z"/><polygon class="cls-5" points="352.613 330.64 351.903 436.28 351.373 515.6 335.883 516.28 336.063 436.25 336.253 408.46 336.473 377.01 336.473 376.99 336.793 331.02 339.453 330.95 352.613 330.64"/><path class="cls-15" d="M49.37318,516.41h431.45"/><line class="cls-19" x1="200.35151" y1="194.75036" x2="230.93975" y2="194.75036"/><line class="cls-19" x1="199.64563" y1="199.39742" x2="225.99857" y2="199.39742"/><line class="cls-6" x1="198.64563" y1="204.45624" x2="217.76078" y2="204.45624"/><line class="cls-6" x1="201.99857" y1="208.51506" x2="221.11372" y2="208.51506"/><line class="cls-6" x1="204.8221" y1="212.57389" x2="223.93725" y2="212.57389"/><line class="cls-19" x1="323.36019" y1="195.95282" x2="344.23387" y2="195.95282"/><line class="cls-19" x1="201.99857" y1="216.63271" x2="221.11372" y2="216.63271"/><line class="cls-19" x1="196.79269" y1="220.69154" x2="215.90784" y2="220.69154"/><line class="cls-20" x1="201.73387" y1="224.75036" x2="241.08681" y2="224.75036"/><line class="cls-20" x1="200.90784" y1="229.16212" x2="262.43975" y2="229.16212"/><line class="cls-20" x1="194.73136" y1="233.57389" x2="256.26328" y2="233.57389"/><line class="cls-21" x1="316.81226" y1="191.66691" x2="309.02395" y2="269.19005"/><line class="cls-19" x1="193.61247" y1="237.45624" x2="210.67379" y2="237.45624"/><line class="cls-19" x1="192.32085" y1="241.95624" x2="214.37967" y2="241.95624"/><line class="cls-6" x1="193.79269" y1="246.45624" x2="218.58681" y2="246.45624"/><line class="cls-20" x1="322.91054" y1="199.86801" x2="336.20446" y2="199.86801"/><line class="cls-19" x1="322.13972" y1="204.1033" x2="331.43975" y2="204.1033"/><line class="cls-20" x1="324.73387" y1="208.57389" x2="344.23387" y2="208.57389"/><line class="cls-19" x1="320.59807" y1="213.04448" x2="333.38093" y2="213.04448"/><path class="cls-4" d="M264.76318,280.9a2.42,2.42,0,0,1-.16.89,2.61242,2.61242,0,0,1-4.56.67,2.56734,2.56734,0,0,1-.52-1.56,2.62,2.62,0,0,1,5.24,0Z"/><circle class="cls-8" cx="123.28185" cy="191.66691" r="3.22059"/><circle class="cls-8" cx="102.94214" cy="191.19597" r="3.22059"/><path class="cls-15" d="M110.72112,205.32342a3.73859,3.73859,0,0,0,3.11761,3.29413,3.79168,3.79168,0,0,0,4.05884-3.47058"/><path class="cls-15" d="M73.07992,189.19891a5.42963,5.42963,0,0,0-6.76589-1.08223,5.85372,5.85372,0,0,0-2.7734,5.62607,5.56794,5.56794,0,0,0,3.21644,4.41195,5.02277,5.02277,0,0,0,1.66064.41919"/><polygon class="cls-1" points="279.558 11.717 279.558 27.246 284.04 22.986 289.535 22.986 279.558 11.717"/><polygon class="cls-4" points="295.06 16.515 295.06 28.044 298.743 24.882 303.258 24.882 295.06 16.515"/><polyline class="cls-1" points="278.669 40.419 278.669 42.538 278.669 44.656 278.669 42.538 289.535 42.538 289.535 40.37 289.535 44.361 289.535 42.538 284.366 42.538 284.366 51.898 281.676 51.898 286.529 51.898"/><line class="cls-15" x1="302.24076" y1="42.00045" x2="294.55785" y2="52.71368"/><ellipse class="cls-1" cx="283.5197" cy="68.08411" rx="4.5725" ry="5.90553" transform="translate(176.63031 339.36537) rotate(-81.99798)"/><polygon class="cls-1" points="294.774 66.209 293.815 71.729 299.999 70.896 300.648 67.98 302.984 65.689 299.946 62.309 297.866 64.751 294.774 66.209"/><line class="cls-15" x1="296.44051" y1="69.08894" x2="293.81475" y2="71.72941"/><circle class="cls-6" cx="67.75508" cy="509.08047" r="5.46543"/><circle class="cls-6" cx="86.62326" cy="510.3849" r="5.46543"/><circle class="cls-6" cx="147.79963" cy="508.895" r="5.46543"/><circle class="cls-6" cx="164.6281" cy="508.895" r="5.46543"/><path class="cls-22" d="M321.92018,150.478a5.55446,5.55446,0,0,0,2.86529,4.85755.47862.47862,0,0,1,.19362.14365.26688.26688,0,0,1-.019.33179.27049.27049,0,0,1-.3586.05489,5.61613,5.61613,0,0,1-1.09847-.75183,6.13437,6.13437,0,0,1,2.57229-10.60973,5.84865,5.84865,0,0,1,5.79061,1.66118,4.4739,4.4739,0,0,1-6.35326,6.29477,2.96068,2.96068,0,0,1-.80285-1.31588.612.612,0,0,1-.03456-.24022.298.298,0,0,1,.178-.25711.29423.29423,0,0,1,.36141.12775.62159.62159,0,0,1,.0618.1364,2.99545,2.99545,0,0,0,2.267,2.08784,3.91311,3.91311,0,0,0,4.92033-3.18983,3.828,3.828,0,0,0-1.7417-3.90625,5.58518,5.58518,0,0,0-8.721,3.63619,5.68692,5.68692,0,0,0-.08087.93884"/><path class="cls-22" d="M334.12223,149.13685a5.55453,5.55453,0,0,0-2.86536-4.85755.47839.47839,0,0,1-.19355-.14365.26678.26678,0,0,1,.019-.33179.27042.27042,0,0,1,.35853-.0549,5.61491,5.61491,0,0,1,1.09847.75183,6.13439,6.13439,0,0,1-2.57221,10.60973,5.84877,5.84877,0,0,1-5.79069-1.66117,4.47392,4.47392,0,0,1,6.35333-6.29477,2.96054,2.96054,0,0,1,.80278,1.31588.612.612,0,0,1,.03463.24022.29812.29812,0,0,1-.178.25711.29434.29434,0,0,1-.36148-.12775.62866.62866,0,0,1-.0618-.1364,2.99535,2.99535,0,0,0-2.267-2.08784,3.91307,3.91307,0,0,0-4.92026,3.18982,3.828,3.828,0,0,0,1.74163,3.90626,5.58524,5.58524,0,0,0,8.72107-3.6362,5.68671,5.68671,0,0,0,.08087-.93883"/></g></g></svg>