<?xml version="1.0" standalone="no"?><svg xmlns="http://www.w3.org/2000/svg" viewBox="0 0 1440 320"><path fill="#ffffff" fill-opacity="1" d="M0,32L26.7,58.7C53.3,85,107,139,160,181.3C213.3,224,267,256,320,250.7C373.3,245,427,203,480,160C533.3,117,587,75,640,74.7C693.3,75,747,117,800,133.3C853.3,149,907,139,960,117.3C1013.3,96,1067,64,1120,69.3C1173.3,75,1227,117,1280,160C1333.3,203,1387,245,1413,266.7L1440,288L1440,0L1413.3,0C1386.7,0,1333,0,1280,0C1226.7,0,1173,0,1120,0C1066.7,0,1013,0,960,0C906.7,0,853,0,800,0C746.7,0,693,0,640,0C586.7,0,533,0,480,0C426.7,0,373,0,320,0C266.7,0,213,0,160,0C106.7,0,53,0,27,0L0,0Z"></path></svg>
